<svg viewBox="0 0 1000 626" xmlns="http://www.w3.org/2000/svg" font-family="Inter, -apple-system, system-ui, sans-serif">
  <defs>
    <marker id="arrow" viewBox="0 0 10 10" refX="8" refY="5" markerWidth="7" markerHeight="7" orient="auto-start-reverse">
      <path d="M0,0 L10,5 L0,10 z" fill="#8B949E"/>
    </marker>
  </defs>

  <rect x="1" y="1" width="998" height="624" rx="18" fill="#0D1117" stroke="#30363D" stroke-width="1.5"/>

  <!-- ===== CLIENTS ===== -->
  <text x="30" y="34" font-size="11" font-weight="700" fill="#9AA4B2" letter-spacing="1.2">AI AGENTS / MCP CLIENTS<tspan fill="#6E7681" font-weight="500" letter-spacing="0"> — connect through one endpoint</tspan></text>

  <rect x="30"  y="44" width="176" height="50" rx="11" fill="#1C2440" stroke="#4F5BD5" stroke-width="1.5"/>
  <text x="118" y="66" text-anchor="middle" font-size="13" font-weight="700" fill="#E6EDF3">Claude</text>
  <text x="118" y="83" text-anchor="middle" font-size="10.5" fill="#9AA4B2">chat + Code</text>

  <rect x="220" y="44" width="176" height="50" rx="11" fill="#1C2440" stroke="#4F5BD5" stroke-width="1.5"/>
  <text x="308" y="66" text-anchor="middle" font-size="13" font-weight="700" fill="#E6EDF3">ChatGPT</text>
  <text x="308" y="83" text-anchor="middle" font-size="10.5" fill="#9AA4B2">connects today</text>

  <rect x="410" y="44" width="176" height="50" rx="11" fill="#1C2440" stroke="#4F5BD5" stroke-width="1.5"/>
  <text x="498" y="66" text-anchor="middle" font-size="13" font-weight="700" fill="#E6EDF3">Cursor · Copilot</text>
  <text x="498" y="83" text-anchor="middle" font-size="10.5" fill="#9AA4B2">IDE agents</text>

  <rect x="600" y="44" width="176" height="50" rx="11" fill="#1C2440" stroke="#4F5BD5" stroke-width="1.5"/>
  <text x="688" y="66" text-anchor="middle" font-size="13" font-weight="700" fill="#E6EDF3">any MCP client</text>
  <text x="688" y="83" text-anchor="middle" font-size="10.5" fill="#9AA4B2">web · mobile · CI</text>

  <rect x="790" y="44" width="176" height="50" rx="11" fill="#21262D" stroke="#484F58" stroke-width="1.5"/>
  <text x="878" y="66" text-anchor="middle" font-size="13" font-weight="700" fill="#E6EDF3">opzero CLI</text>
  <text x="878" y="83" text-anchor="middle" font-size="10.5" fill="#9AA4B2">+ local MCP</text>

  <!-- rail -->
  <g stroke="#8B949E" stroke-width="1.5" fill="none">
    <path d="M118,94 L118,108"/><path d="M308,94 L308,108"/><path d="M498,94 L498,108"/><path d="M688,94 L688,108"/><path d="M878,94 L878,108"/>
    <path d="M118,108 L878,108"/>
    <path d="M500,108 L500,130" marker-end="url(#arrow)"/>
  </g>

  <!-- ===== 1 AUTHENTICATE ===== -->
  <rect x="30" y="132" width="936" height="56" rx="13" fill="#2B2410" stroke="#D9A93A" stroke-width="2"/>
  <text x="52" y="158" font-size="14.5" font-weight="800" fill="#F0F3F8" letter-spacing="0.6">AUTHENTICATE<tspan font-family="JetBrains Mono, ui-monospace, monospace" font-size="12" font-weight="500" letter-spacing="0" fill="#E0B84A" dx="12">·  auth.opzero.sh</tspan></text>
  <text x="52" y="177" font-size="12.5" fill="#9AA4B2">Sign in once — every agent then acts as you, securely.</text>

  <path d="M500,188 L500,210" stroke="#8B949E" stroke-width="1.5" fill="none" marker-end="url(#arrow)"/>

  <!-- ===== 2 ORCHESTRATE ===== -->
  <rect x="30" y="212" width="936" height="56" rx="13" fill="#13233F" stroke="#4F7BD0" stroke-width="2"/>
  <text x="52" y="238" font-size="14.5" font-weight="800" fill="#F0F3F8" letter-spacing="0.6">ORCHESTRATE<tspan font-family="JetBrains Mono, ui-monospace, monospace" font-size="12" font-weight="500" letter-spacing="0" fill="#6F9EEA" dx="12">·  hub.opzero.sh</tspan></text>
  <text x="52" y="257" font-size="12.5" fill="#9AA4B2">Launch and steer every agent, across all your machines — one place.</text>

  <!-- branch -->
  <g stroke="#8B949E" stroke-width="1.5" fill="none">
    <path d="M500,268 L500,289"/>
    <path d="M335,289 L815,289"/>
    <path d="M335,289 L335,310" marker-end="url(#arrow)"/>
    <path d="M815,289 L815,310" marker-end="url(#arrow)"/>
  </g>

  <!-- ===== 3 GENERATE ===== -->
  <rect x="30" y="312" width="610" height="62" rx="13" fill="#0F2C1F" stroke="#3A9D6E" stroke-width="2"/>
  <text x="48" y="338" font-size="14.5" font-weight="800" fill="#F0F3F8" letter-spacing="0.6">GENERATE<tspan font-family="JetBrains Mono, ui-monospace, monospace" font-size="12" font-weight="500" letter-spacing="0" fill="#34C08A" dx="12">·  code.opzero.sh</tspan></text>
  <text x="48" y="360" font-size="12.5" fill="#9AA4B2">Watch a coding agent build — and drive it from your phone.</text>

  <!-- ===== 4 PUBLISH ===== -->
  <rect x="660" y="312" width="306" height="62" rx="13" fill="#241636" stroke="#8B5FC7" stroke-width="2"/>
  <text x="676" y="338" font-size="14.5" font-weight="800" fill="#F0F3F8" letter-spacing="0.6">PUBLISH<tspan font-family="JetBrains Mono, ui-monospace, monospace" font-size="11.5" font-weight="500" letter-spacing="0" fill="#A779E0" dx="10">·  opzero.sh</tspan></text>
  <text x="676" y="360" font-size="12.5" fill="#9AA4B2">Push what you build to a live URL.</text>

  <path d="M335,374 L335,400" stroke="#8B949E" stroke-width="1.5" fill="none" marker-end="url(#arrow)"/>
  <path d="M815,374 L815,402" stroke="#8B949E" stroke-width="1.5" fill="none" marker-end="url(#arrow)"/>

  <!-- section labels -->
  <text x="30" y="394" font-size="11" font-weight="700" fill="#9AA4B2" letter-spacing="1">YOUR MACHINES<tspan fill="#6E7681" font-weight="500" letter-spacing="0"> — each one runs many sessions at once, all driven by the hub</tspan></text>
  <text x="660" y="394" font-size="11" font-weight="700" fill="#9AA4B2" letter-spacing="1">DEPLOY TARGETS</text>

  <!-- MacBook -->
  <rect x="30" y="406" width="194" height="140" rx="12" fill="#161B22" stroke="#30363D" stroke-width="1.5"/>
  <text x="44" y="429" font-size="13" font-weight="700" fill="#E6EDF3">MacBook</text>
  <text x="44" y="444" font-size="10" fill="#3FB985" font-weight="600">3 live sessions</text>
  <rect x="42" y="453" width="170" height="22" rx="6" fill="#1C2440" stroke="#3A3F73"/><text x="52" y="468" font-size="11" font-weight="600" fill="#C7CBE8">Claude Code · #1</text>
  <rect x="42" y="481" width="170" height="22" rx="6" fill="#1C2440" stroke="#3A3F73"/><text x="52" y="496" font-size="11" font-weight="600" fill="#C7CBE8">Claude Code · #2</text>
  <rect x="42" y="509" width="170" height="22" rx="6" fill="#1C2440" stroke="#3A3F73"/><text x="52" y="524" font-size="11" font-weight="600" fill="#C7CBE8">Claude Code · #3</text>

  <!-- Work PC -->
  <rect x="238" y="406" width="194" height="140" rx="12" fill="#161B22" stroke="#30363D" stroke-width="1.5"/>
  <text x="252" y="429" font-size="13" font-weight="700" fill="#E6EDF3">Work PC</text>
  <text x="252" y="444" font-size="10" fill="#3FB985" font-weight="600">2 live sessions</text>
  <rect x="250" y="453" width="170" height="22" rx="6" fill="#1C2440" stroke="#3A3F73"/><text x="260" y="468" font-size="11" font-weight="600" fill="#C7CBE8">Claude Code · #1</text>
  <rect x="250" y="481" width="170" height="22" rx="6" fill="#1C2440" stroke="#3A3F73"/><text x="260" y="496" font-size="11" font-weight="600" fill="#C7CBE8">Claude Code · #2</text>
  <rect x="250" y="509" width="170" height="22" rx="6" fill="#2B2410" stroke="#9E8224"/><text x="260" y="524" font-size="11" font-weight="600" fill="#E0C879">Codex · soon</text>

  <!-- Cloud container -->
  <rect x="446" y="406" width="194" height="140" rx="12" fill="#161B22" stroke="#30363D" stroke-width="1.5"/>
  <text x="460" y="429" font-size="13" font-weight="700" fill="#E6EDF3">Cloud container</text>
  <text x="460" y="444" font-size="10" fill="#6E7681" font-weight="600">ephemeral · throwaway runs</text>
  <rect x="458" y="453" width="170" height="22" rx="6" fill="#1C2440" stroke="#3A3F73"/><text x="468" y="468" font-size="11" font-weight="600" fill="#C7CBE8">Claude Code · #1</text>
  <rect x="458" y="481" width="170" height="22" rx="6" fill="#1C2440" stroke="#3A3F73"/><text x="468" y="496" font-size="11" font-weight="600" fill="#C7CBE8">Claude Code · #2</text>
  <text x="468" y="525" font-size="10" fill="#6E7681">spin up · run · discard</text>

  <!-- DEPLOY -->
  <rect x="660" y="406" width="306" height="140" rx="12" fill="#33121F" stroke="#C25478" stroke-width="1.8"/>
  <text x="813" y="455" text-anchor="middle" font-size="14.5" font-weight="800" fill="#F0F3F8">Cloudflare Pages</text>
  <text x="813" y="479" text-anchor="middle" font-size="14.5" font-weight="800" fill="#F0F3F8">Vercel · Netlify</text>
  <text x="813" y="510" text-anchor="middle" font-family="JetBrains Mono, ui-monospace, monospace" font-size="12" fill="#9AA4B2">live at *.opzero.sh</text>

  <!-- footer -->
  <text x="30" y="578" font-size="11" fill="#9AA4B2">Claude Code is live today · Codex and Gemini coming soon.</text>
  <text x="30" y="598" font-size="11" fill="#6E7681">Always-on layers (Authenticate, Orchestrate) run on Cloudflare Workers · platform and site on Vercel.</text>
</svg>
